<!DOCTYPE svg PUBLIC "-//W3C//DTD SVG 1.1//EN" "http://www.w3.org/Graphics/SVG/1.1/DTD/svg11.dtd">
<!-- Uploaded to: SVG Repo, www.svgrepo.com, Transformed by: SVG Repo Mixer Tools -->
<svg version="1.1" id="Layer_1" xmlns="http://www.w3.org/2000/svg" xmlns:xlink="http://www.w3.org/1999/xlink" viewBox="0 0 512 512" xml:space="preserve" width="800px" height="800px" fill="#000000">
<g id="SVGRepo_bgCarrier" stroke-width="0"/>
<g id="SVGRepo_tracerCarrier" stroke-linecap="round" stroke-linejoin="round"/>
<g id="SVGRepo_iconCarrier"> <rect x="21.664" y="68.64" style="fill:#104494;" width="468.64" height="286"/> <path d="M480,77.632V346.96H32V77.632H480 M488,45.632H24c-13.2,0-24,10.8-24,24V354.96c0,13.2,10.8,24,24,24h464 c13.2,0,24-10.8,24-24V69.632C512,56.432,501.2,45.632,488,45.632L488,45.632z"/> <rect x="216" y="378.976" style="fill:#104494494949;" width="80" height="71.328"/> <rect x="142.992" y="434.368" width="225.92" height="32"/> <polygon points="216,378.976 282.752,378.976 216,408.72 "/> <g style="opacity:0.35;"> <polygon style="fill:#104494FFFFF;" points="32,77.632 168,77.632 32,160.64 "/> </g> <g> <rect x="170" y="118.256" style="fill:#104494FFFFF;" width="128" height="16"/> <rect x="214" y="156.256" style="fill:#104494FFFFF;" width="128" height="16"/> <rect x="170" y="204.256" style="fill:#104494FFFFF;" width="128" height="16"/> <rect x="214" y="242.208" style="fill:#104494FFFFF;" width="128" height="16"/> <rect x="170" y="290.208" style="fill:#104494FFFFF;" width="128" height="16"/> </g> </g>
</svg>