<svg id="visual" viewBox="0 0 900 600" width="900" height="600" xmlns="http://www.w3.org/2000/svg" xmlns:xlink="http://www.w3.org/1999/xlink" version="1.1"><path d="M560 600L562 585.7C564 571.3 568 542.7 579.5 514.2C591 485.7 610 457.3 604 428.8C598 400.3 567 371.7 569.3 343C571.7 314.3 607.3 285.7 619.2 257C631 228.3 619 199.7 603.3 171.2C587.7 142.7 568.3 114.3 565.7 85.8C563 57.3 577 28.7 584 14.3L591 0L900 0L900 14.3C900 28.7 900 57.3 900 85.8C900 114.3 900 142.7 900 171.2C900 199.7 900 228.3 900 257C900 285.7 900 314.3 900 343C900 371.7 900 400.3 900 428.8C900 457.3 900 485.7 900 514.2C900 542.7 900 571.3 900 585.7L900 600Z" fill="#a3dcd6"></path><path d="M592 600L602 585.7C612 571.3 632 542.7 639.8 514.2C647.7 485.7 643.3 457.3 634.3 428.8C625.3 400.3 611.7 371.7 607.2 343C602.7 314.3 607.3 285.7 620.3 257C633.3 228.3 654.7 199.7 653.2 171.2C651.7 142.7 627.3 114.3 617.3 85.8C607.3 57.3 611.7 28.7 613.8 14.3L616 0L900 0L900 14.3C900 28.7 900 57.3 900 85.8C900 114.3 900 142.7 900 171.2C900 199.7 900 228.3 900 257C900 285.7 900 314.3 900 343C900 371.7 900 400.3 900 428.8C900 457.3 900 485.7 900 514.2C900 542.7 900 571.3 900 585.7L900 600Z" fill="#85c1c3"></path><path d="M678 600L677.2 585.7C676.3 571.3 674.7 542.7 688.2 514.2C701.7 485.7 730.3 457.3 738.2 428.8C746 400.3 733 371.7 730.8 343C728.7 314.3 737.3 285.7 733 257C728.7 228.3 711.3 199.7 713.7 171.2C716 142.7 738 114.3 741.7 85.8C745.3 57.3 730.7 28.7 723.3 14.3L716 0L900 0L900 14.3C900 28.7 900 57.3 900 85.8C900 114.3 900 142.7 900 171.2C900 199.7 900 228.3 900 257C900 285.7 900 314.3 900 343C900 371.7 900 400.3 900 428.8C900 457.3 900 485.7 900 514.2C900 542.7 900 571.3 900 585.7L900 600Z" fill="#69a7b0"></path><path d="M795 600L786.7 585.7C778.3 571.3 761.7 542.7 752.2 514.2C742.7 485.7 740.3 457.3 743.7 428.8C747 400.3 756 371.7 761.2 343C766.3 314.3 767.7 285.7 769.3 257C771 228.3 773 199.7 770.3 171.2C767.7 142.7 760.3 114.3 767.2 85.8C774 57.3 795 28.7 805.5 14.3L816 0L900 0L900 14.3C900 28.7 900 57.3 900 85.8C900 114.3 900 142.7 900 171.2C900 199.7 900 228.3 900 257C900 285.7 900 314.3 900 343C900 371.7 900 400.3 900 428.8C900 457.3 900 485.7 900 514.2C900 542.7 900 571.3 900 585.7L900 600Z" fill="#4f8d9d"></path><path d="M796 600L799.5 585.7C803 571.3 810 542.7 812.7 514.2C815.3 485.7 813.7 457.3 818.5 428.8C823.3 400.3 834.7 371.7 839.8 343C845 314.3 844 285.7 844.5 257C845 228.3 847 199.7 838.8 171.2C830.7 142.7 812.3 114.3 812.8 85.8C813.3 57.3 832.7 28.7 842.3 14.3L852 0L900 0L900 14.3C900 28.7 900 57.3 900 85.8C900 114.3 900 142.7 900 171.2C900 199.7 900 228.3 900 257C900 285.7 900 314.3 900 343C900 371.7 900 400.3 900 428.8C900 457.3 900 485.7 900 514.2C900 542.7 900 571.3 900 585.7L900 600Z" fill="#39738a"></path></svg>